<svg width="110" height="50" viewBox="0 0 110 50" fill="none" xmlns="http://www.w3.org/2000/svg">
<circle cx="5" cy="5" r="5" fill="white"/>
<circle cx="5" cy="25" r="5" fill="white"/>
<circle cx="5" cy="45" r="5" fill="white"/>
<circle cx="25" cy="5" r="5" fill="white"/>
<circle cx="25" cy="25" r="5" fill="white"/>
<circle cx="25" cy="45" r="5" fill="white"/>
<circle cx="45" cy="5" r="5" fill="white"/>
<circle cx="45" cy="25" r="5" fill="white"/>
<circle cx="45" cy="45" r="5" fill="white"/>
<circle cx="65" cy="5" r="5" fill="white"/>
<circle cx="65" cy="25" r="5" fill="white"/>
<circle cx="65" cy="45" r="5" fill="white"/>
<ellipse cx="85.5" cy="5" rx="4.5" ry="5" fill="white"/>
<ellipse cx="85.5" cy="25" rx="4.5" ry="5" fill="white"/>
<ellipse cx="85.5" cy="45" rx="4.5" ry="5" fill="white"/>
<ellipse cx="105.5" cy="5" rx="4.5" ry="5" fill="white"/>
<ellipse cx="105.5" cy="25" rx="4.5" ry="5" fill="white"/>
<ellipse cx="105.5" cy="45" rx="4.5" ry="5" fill="white"/>
</svg>
